#!OML:ASF F:\VICON\USERDATA\INSTALL\rory3\rory3.ASF
:FULLY-SPECIFIED
:DEGREES
500
root 0.0188687 18.1053 0.314881 178.398 1.18143 180.109
lowerback 8.09159 0.854681 -1.64355
upperback 0.305418 1.03301 0.121431
thorax -4.25307 0.563013 0.928316
lowerneck -21.6614 -4.91559 -12.2465
upperneck 29.4288 -7.0175 8.97899
head 14.5419 -3.65775 4.32229
rclavicle -2.19595e-015 3.57812e-015
rhumerus -34.353 -11.0978 -83.4441
rradius 28.2405
rwrist 8.38302
rhand -14.4904 8.24269
rfingers 7.12502
rthumb 11.6563 -21.4131
lclavicle -2.19595e-015 3.57812e-015
lhumerus -37.4372 6.84636 83.0109
lradius 33.4755
lwrist -3.25384
lhand -19.0927 24.5963
lfingers 7.12502
lthumb 7.21566 54.4533
rfemur -3.07668 0.105283 22.8905
rtibia 22.5255
rfoot -14.2607 -0.640717
rtoes 5.04819
lfemur 1.23642 -2.71273 -22.2646
ltibia 14.2861
lfoot -8.68327 3.39485
ltoes 1.38576
501
root 0.0273861 18.1086 0.320097 178.442 1.18291 180.092
lowerback 8.09268 0.837617 -1.7136
upperback 0.312283 1.00457 0.131218
thorax -4.24711 0.55044 0.981211
lowerneck -21.6984 -4.89838 -12.3063
upperneck 29.4581 -6.99425 9.04907
head 14.5656 -3.64614 4.36757
rclavicle -8.97637e-016 -5.46658e-015
rhumerus -34.3052 -11.0388 -83.5126
rradius 28.2754
rwrist 8.29105
rhand -14.4895 8.11621
rfingers 7.12502
rthumb 11.657 -21.5395
lclavicle -8.97637e-016 -5.46658e-015
lhumerus -37.3959 6.91251 82.982
lradius 33.4845
lwrist -3.2137
lhand -19.1746 24.4878
lfingers 7.12502
lthumb 7.1366 54.3475
rfemur -3.18415 0.121915 22.9097
rtibia 22.5834
rfoot -14.2443 -0.67762
rtoes 4.93924
lfemur 1.17669 -2.69923 -22.2456
ltibia 14.2615
lfoot -8.6434 3.38102
ltoes 1.2265
502
root 0.034068 18.1091 0.323424 178.459 1.12181 179.997
lowerback 8.12315 0.810003 -1.85238
upperback 0.302589 0.953767 0.117802
thorax -4.27482 0.528206 1.0508
lowerneck -21.7478 -4.87977 -12.3465
upperneck 29.5356 -6.98434 9.11269
head 14.6142 -3.64195 4.40521
rclavicle -5.9946e-015 -5.26779e-015
rhumerus -34.2859 -11.0894 -83.5267
rradius 28.2675
rwrist 8.32291
rhand -14.4078 7.93834
rfingers 7.12502
rthumb 11.7359 -21.7129
lclavicle -5.9946e-015 -5.26779e-015
lhumerus -37.3602 6.99773 82.932
lradius 33.411
lwrist -3.31301
lhand -19.1945 24.4601
lfingers 7.12502
lthumb 7.11737 54.3205
rfemur -3.23157 0.0921003 22.8382
rtibia 22.6224
rfoot -14.2911 -0.685508
rtoes 4.70622
lfemur 1.12913 -2.69943 -22.3141
ltibia 14.2675
lfoot -8.62945 3.31216
ltoes 1.24066
503
root 0.0393715 18.1053 0.324906 178.435 1.08652 179.971
lowerback 8.1533 0.791183 -1.89908
upperback 0.310507 0.924048 0.107545
thorax -4.28309 0.514619 1.06958
lowerneck -21.7668 -4.87352 -12.3405
upperneck 29.5949 -6.99957 9.13763
head 14.6477 -3.64856 4.41301
rclavicle -8.1626e-015 4.37326e-015
rhumerus -34.2951 -11.0958 -83.5627
rradius 28.2856
rwrist 8.33794
rhand -14.4052 7.86294
rfingers 7.12502
rthumb 11.7384 -21.7882
lclavicle -8.1626e-015 4.37326e-015
lhumerus -37.3555 7.00372 82.8855
lradius 33.3795
lwrist -3.31549
lhand -19.1757 24.5568
lfingers 7.12502
lthumb 7.13557 54.4165
rfemur -3.20923 0.0853027 22.8394
rtibia 22.6427
rfoot -14.3374 -0.713985
rtoes 4.62563
lfemur 1.13458 -2.73843 -22.323
ltibia 14.2955
lfoot -8.69537 3.31846
ltoes 1.41503
504
root 0.0449786 18.1022 0.326632 178.412 1.07471 179.961
lowerback 8.16747 0.758206 -1.90671
upperback 0.324352 0.87943 0.0940949
thorax -4.27502 0.492704 1.06511
lowerneck -21.7222 -4.86594 -12.3453
upperneck 29.5648 -6.99529 9.15104
head 14.6246 -3.64641 4.41956
rclavicle -3.26131e-016 -2.98177e-016
rhumerus -34.2963 -10.8444 -83.7043
rradius 28.3211
rwrist 8.1885
rhand -14.5155 7.86646
rfingers 7.12502
rthumb 11.632 -21.7907
lclavicle -3.26131e-016 -2.98177e-016
lhumerus -37.3638 7.02825 82.8146
lradius 33.3892
lwrist -3.27778
lhand -19.1505 24.6826
lfingers 7.12502
lthumb 7.15983 54.5415
rfemur -3.18894 0.0768608 22.8548
rtibia 22.6503
rfoot -14.3553 -0.747798
rtoes 4.51404
lfemur 1.14713 -2.84015 -22.3234
ltibia 14.3282
lfoot -8.73511 3.4095
ltoes 1.70533
505
root 0.0508194 18.1031 0.329635 178.406 1.07536 179.95
lowerback 8.2221 0.7388 -1.91677
upperback 0.313297 0.851531 0.098282
thorax -4.31646 0.479539 1.07771
lowerneck -21.6479 -4.87946 -12.3846
upperneck 29.5054 -6.99525 9.13341
head 14.5829 -3.65273 4.41749
rclavicle 6.27414e-015 -3.67752e-015
rhumerus -34.3092 -10.5732 -83.8208
rradius 28.3269
rwrist 7.97205
rhand -14.6274 7.91476
rfingers 7.12502
rthumb 11.5241 -21.7484
lclavicle 6.27414e-015 -3.67752e-015
lhumerus -37.3904 7.10923 82.7694
lradius 33.3822
lwrist -3.29088
lhand -19.2192 24.5031
lfingers 7.12502
lthumb 7.09356 54.3643
rfemur -3.18598 0.0980008 22.8686
rtibia 22.6401
rfoot -14.3404 -0.768103
rtoes 4.75271
lfemur 1.10138 -2.84696 -22.3169
ltibia 14.3942
lfoot -8.68995 3.43864
ltoes 1.68593
506
root 0.0573935 18.1071 0.333862 178.365 1.08696 179.996
lowerback 8.3499 0.741341 -1.85764
upperback 0.306977 0.85849 0.098851
thorax -4.3941 0.482773 1.04268
lowerneck -21.5397 -4.88243 -12.4438
upperneck 29.441 -7.00433 9.18534
head 14.537 -3.6582 4.44648
rclavicle -8.17502e-015 8.54774e-015
rhumerus -34.2819 -10.6506 -83.8605
rradius 28.2496
rwrist 8.07717
rhand -14.6666 7.93877
rfingers 7.12502
rthumb 11.4863 -21.7265
lclavicle -8.17502e-015 8.54774e-015
lhumerus -37.4113 7.14436 82.6974
lradius 33.3722
lwrist -3.42021
lhand -19.2155 24.4348
lfingers 7.12502
lthumb 7.09716 54.2958
rfemur -3.15983 0.156286 22.9522
rtibia 22.6163
rfoot -14.2559 -0.799411
rtoes 4.83157
lfemur 1.08697 -2.8468 -22.2398
ltibia 14.4709
lfoot -8.68234 3.44057
ltoes 1.60814
507
root 0.0659889 18.1059 0.336193 178.28 1.10274 180.05
lowerback 8.43261 0.759497 -1.79719
upperback 0.353166 0.889221 0.0856538
thorax -4.39221 0.49741 0.990551
lowerneck -21.4505 -4.85278 -12.4494
upperneck 29.3843 -6.98587 9.2462
head 14.4924 -3.64423 4.4756
rclavicle -3.3607e-015 -1.19271e-015
rhumerus -34.2141 -10.9046 -83.8944
rradius 28.2207
rwrist 8.29872
rhand -14.6776 7.94614
rfingers 7.12502
rthumb 11.4757 -21.7198
lclavicle -3.3607e-015 -1.19271e-015
lhumerus -37.3921 7.05577 82.6548
lradius 33.3922
lwrist -3.46648
lhand -19.288 24.3742
lfingers 7.12502
lthumb 7.02715 54.2376
rfemur -3.06145 0.269785 23.0597
rtibia 22.5659
rfoot -14.136 -0.910117
rtoes 4.81647
lfemur 1.13313 -2.85537 -22.1529
ltibia 14.5559
lfoot -8.73796 3.46484
ltoes 1.63121
508
root 0.0739923 18.1028 0.337504 178.236 1.08911 180.095
lowerback 8.46503 0.746259 -1.77939
upperback 0.392847 0.875324 0.0945401
thorax -4.36848 0.490623 0.991319
lowerneck -21.3695 -4.80798 -12.2965
upperneck 29.2703 -6.89963 9.07142
head 14.3968 -3.60721 4.38986
rclavicle 4.31735e-015 -4.17448e-015
rhumerus -34.119 -10.9696 -83.9815
rradius 28.2027
rwrist 8.42464
rhand -14.6979 7.91636
rfingers 7.12502
rthumb 11.4561 -21.7506
lclavicle 4.31735e-015 -4.17448e-015
lhumerus -37.3687 7.16749 82.5644
lradius 33.3831
lwrist -3.58355
lhand -19.2401 24.199
lfingers 7.12502
lthumb 7.07341 54.0608
rfemur -2.98823 0.282476 23.1489
rtibia 22.5159
rfoot -14.0669 -0.974383
rtoes 4.51947
lfemur 1.13902 -2.89061 -22.0774
ltibia 14.6165
lfoot -8.77362 3.48119
ltoes 1.88611
509
root 0.0804906 18.1035 0.336066 178.209 1.12853 180.155
lowerback 8.49658 0.741022 -1.74225
upperback 0.396709 0.87217 0.10575
thorax -4.38166 0.488635 0.982099
lowerneck -21.3095 -4.76138 -12.2017
upperneck 29.2628 -6.84611 8.98485
head 14.3644 -3.58736 4.3474
rclavicle -6.83943e-015 8.94531e-016
rhumerus -34.1022 -10.8187 -84.1218
rradius 28.2072
rwrist 8.32984
rhand -14.7311 7.90054
rfingers 7.12502
rthumb 11.4241 -21.7682
lclavicle -6.83943e-015 8.94531e-016
lhumerus -37.4088 7.2999 82.446
lradius 33.4041
lwrist -3.68165
lhand -19.0271 24.228
lfingers 7.12502
lthumb 7.279 54.0828
rfemur -2.93492 0.260825 23.2319
rtibia 22.4938
rfoot -14.0929 -0.892743
rtoes 4.53851
lfemur 1.16128 -2.9109 -22.0003
ltibia 14.6573
lfoot -8.80051 3.53358
ltoes 1.95828
